# xmcd
#
# Track frame offsets: 
#        150
#        22300
#        54602
#        86879
#        111031
#        137744
#        169258
#        201648
#        223378
#
# Disc length: 3525 seconds
#
# Revision: 1
# Processed by: cddbd v1.5.2PL0 Copyright (c) Steve Scherf et al.
# Submitted via: ExactAudioCopy v0.99pb5
#
DISCID=940dc309
DTITLE=Led Bib - Sensible Shoes
DYEAR=2009
DGENRE=Jazz
TTITLE0=Yes, Again
TTITLE1=Squirrel Carnage
TTITLE2=Early Morning
TTITLE3=Sweet Chilli
TTITLE4=2.4:1 (Still Equals None)
TTITLE5=Call Centre Labyrinth
TTITLE6=Water Shortage
TTITLE7=Flat Pack Fantasy
TTITLE8=Zone 4
EXTD=YEAR: 2009
EXTT0=
EXTT1=
EXTT2=
EXTT3=
EXTT4=
EXTT5=
EXTT6=
EXTT7=
EXTT8=
PLAYORDER=
